<svg width="288" height="288" viewBox="0 0 288 288" fill="none" xmlns="http://www.w3.org/2000/svg">
<g clip-path="url(#clip0_651_1746)">
<path d="M134.304 86.1035C146.037 86.128 157.483 89.727 167.118 96.421C176.754 103.115 184.121 112.586 188.238 123.573C188.489 124.227 188.553 124.937 188.425 125.626C188.297 126.315 187.98 126.954 187.51 127.474C187.061 128.006 186.472 128.401 185.81 128.615C185.148 128.83 184.439 128.854 183.763 128.686L163.574 124.079L163.464 123.925C162.213 122.081 160.797 120.354 159.232 118.768C155.182 114.622 150.172 111.539 144.647 109.791C139.121 108.042 133.25 107.683 127.552 108.744C121.854 109.805 116.506 112.254 111.98 115.874C107.454 119.494 103.89 124.174 101.604 129.499C99.3173 134.825 98.3785 140.632 98.8706 146.407C99.3626 152.181 101.27 157.746 104.425 162.608C107.58 167.469 111.884 171.479 116.957 174.281C122.03 177.084 127.716 178.592 133.511 178.674C134.206 178.692 134.884 178.897 135.472 179.269L153.986 190.951C154.603 191.337 155.098 191.889 155.413 192.544C155.729 193.2 155.854 193.931 155.772 194.653C155.694 195.378 155.41 196.064 154.953 196.631C154.495 197.198 153.884 197.621 153.193 197.849C140.902 202.151 127.514 202.148 115.225 197.842C102.936 193.536 92.4742 185.181 85.5565 174.149C78.6387 163.116 75.6752 150.061 77.1518 137.123C78.6284 124.185 84.4576 112.133 93.6834 102.943C99.0121 97.5995 105.344 93.3615 112.314 90.4718C119.285 87.5821 126.758 86.0976 134.304 86.1035Z" fill="#27225C"/>
<path d="M133.973 152.953C131.358 151.211 129.518 148.525 128.839 145.458C128.159 142.39 128.693 139.179 130.328 136.496C131.963 133.813 134.572 131.866 137.61 131.064C140.647 130.261 143.878 130.665 146.625 132.191L205.164 167.984C206.597 168.78 207.854 169.857 208.861 171.151C209.867 172.445 210.601 173.928 211.02 175.513C211.439 177.098 211.533 178.75 211.297 180.372C211.061 181.994 210.499 183.552 209.647 184.951C208.794 186.351 207.667 187.564 206.334 188.517C205.001 189.47 203.489 190.144 201.888 190.499C200.288 190.853 198.633 190.881 197.022 190.58C195.411 190.279 193.877 189.655 192.513 188.747L133.973 152.953Z" fill="#5E5AE3"/>
</g>
<defs>
<clipPath id="clip0_651_1746">
<rect width="146.746" height="115.713" fill="white" transform="translate(70.2537 86.1035)"/>
</clipPath>
</defs>
</svg>
