<svg width="288" height="288" viewBox="0 0 288 288" fill="none" xmlns="http://www.w3.org/2000/svg">
<path d="M74.6614 164.16C74.6614 167.27 77.051 169.729 80.074 169.729C83.0971 169.729 85.4867 167.27 85.4867 164.16V128.938H95.8906C98.6321 128.938 100.882 126.624 100.882 123.802C100.882 120.982 98.6328 118.667 95.8906 118.667H64.2575C61.516 118.667 59.2668 120.982 59.2668 123.802C59.2668 126.623 61.516 128.938 64.2575 128.938H74.6614V164.16ZM110.933 170.018C116.135 170.018 119.72 168.065 122.321 165.1V165.173C122.321 167.487 124.36 169.729 127.453 169.729C130.335 169.729 132.655 167.415 132.655 164.449V146.802C132.655 141.594 131.389 137.327 128.578 134.434C125.907 131.686 121.689 130.095 115.854 130.095C110.863 130.095 107.208 130.818 103.834 132.12C102.147 132.771 100.952 134.434 100.952 136.387C100.952 138.919 102.92 140.872 105.381 140.872C105.873 140.872 106.295 140.799 106.927 140.583C108.966 139.932 111.356 139.498 114.308 139.498C119.651 139.498 122.392 142.029 122.392 146.585V147.236C119.721 146.296 116.979 145.645 113.183 145.645C104.255 145.645 97.9994 149.551 97.9994 158.013V158.157C97.9994 165.824 103.834 170.018 110.934 170.018H110.933ZM114.167 162.424C110.723 162.424 108.332 160.689 108.332 157.723V157.579C108.332 154.107 111.144 152.226 115.713 152.226C118.314 152.226 120.704 152.805 122.532 153.673V155.626C122.532 159.604 119.158 162.424 114.167 162.424ZM141.864 164.233C141.864 167.27 144.254 169.729 147.206 169.729C150.158 169.729 152.548 167.27 152.548 164.233V153.962C152.548 146.152 155.571 141.884 160.984 140.583C163.163 140.076 164.991 138.341 164.991 135.447C164.991 132.338 163.093 130.096 159.789 130.096C156.626 130.096 154.095 133.567 152.548 137.328V135.592C152.548 132.555 150.158 130.096 147.206 130.096C144.254 130.096 141.864 132.554 141.864 135.592V164.233V164.233Z" fill="#27225C"/>
<path d="M195.398 117.853C202.345 117.853 208.64 120.753 213.202 125.44C215.742 128.05 217.743 131.21 219.02 134.727C219.244 135.342 219.129 135.987 218.709 136.482C218.289 136.975 217.682 137.178 217.061 137.032L208.221 134.954L208.173 134.879V134.878C207.624 134.046 207 133.27 206.311 132.562C203.523 129.698 199.665 127.925 195.398 127.925C191.131 127.925 187.273 129.698 184.485 132.562C181.705 135.418 179.987 139.376 179.987 143.758C179.987 148.139 181.706 152.098 184.485 154.954C187.196 157.739 190.92 159.492 195.047 159.586C195.367 159.594 195.64 159.679 195.911 159.854L204.018 165.117C204.58 165.481 204.871 166.105 204.795 166.785C204.719 167.464 204.299 168.005 203.671 168.229C201.079 169.157 198.295 169.663 195.398 169.663C188.451 169.663 182.156 166.763 177.594 162.075C173.023 157.378 170.196 150.901 170.196 143.758C170.196 136.615 173.023 130.139 177.594 125.441C182.156 120.753 188.452 117.853 195.398 117.853L195.398 117.853Z" fill="#27225C"/>
<path d="M195.25 147.986C192.738 146.411 191.942 143.038 193.473 140.454C195.004 137.869 198.282 137.051 200.794 138.625L226.445 154.763C228.957 156.338 229.752 159.711 228.222 162.296C226.691 164.88 223.413 165.699 220.901 164.124L195.25 147.986Z" fill="#5E5AE3"/>
</svg>
